<?xml version="1.0" standalone="no"?>
<!DOCTYPE svg PUBLIC "-//W3C//DTD SVG 20010904//EN"
 "http://www.w3.org/TR/2001/REC-SVG-20010904/DTD/svg10.dtd">
<svg version="1.0" xmlns="http://www.w3.org/2000/svg"
 width="201.000000pt" height="207.000000pt" viewBox="0 0 201.000000 207.000000"
 preserveAspectRatio="xMidYMid meet">
<metadata>
Created by potrace 1.10, written by Peter Selinger 2001-2011
</metadata>
<g transform="translate(0.000000,207.000000) scale(0.100000,-0.100000)"
fill="#e67d64" stroke="none">
<path d="M885 1850 c-44 -3 -90 -11 -102 -18 -12 -6 -32 -12 -45 -12 -13 0
-33 -7 -44 -15 -10 -8 -29 -15 -40 -15 -12 0 -27 -7 -34 -15 -7 -8 -18 -15
-26 -15 -27 0 -132 -81 -216 -166 -49 -48 -88 -92 -88 -97 0 -4 -11 -23 -24
-40 -13 -18 -33 -54 -46 -82 -12 -27 -29 -62 -36 -77 -8 -14 -14 -38 -14 -53
0 -14 -7 -40 -16 -58 -24 -46 -24 -345 0 -381 9 -14 16 -36 16 -49 0 -13 7
-32 15 -43 8 -10 15 -29 15 -40 0 -12 7 -27 15 -34 8 -7 15 -20 15 -30 0 -10
7 -23 15 -30 8 -7 15 -17 15 -22 0 -14 80 -116 131 -166 47 -47 179 -142 219
-158 8 -3 29 -11 45 -18 55 -24 100 -38 145 -47 25 -5 65 -13 90 -19 61 -12
166 -12 214 1 21 6 59 14 85 19 134 23 334 137 431 246 70 78 170 237 170 271
0 6 6 24 14 40 28 56 39 121 43 257 4 108 1 149 -11 187 -9 26 -16 58 -16 71
0 14 -7 33 -15 44 -8 10 -15 29 -15 40 0 12 -7 27 -15 34 -8 7 -15 20 -15 30
0 10 -7 23 -15 30 -8 7 -15 17 -15 22 0 12 -86 125 -116 153 -95 88 -155 135
-174 135 -5 0 -10 3 -10 8 0 4 -24 18 -52 31 -29 13 -65 29 -80 37 -14 8 -35
14 -46 14 -11 0 -35 6 -53 14 -39 16 -198 24 -314 16z m295 -140 c56 -16 140
-52 226 -98 34 -18 189 -175 207 -209 49 -93 87 -176 87 -192 0 -10 7 -36 16
-56 12 -30 15 -64 11 -164 -5 -141 -21 -214 -68 -301 -40 -76 -55 -100 -82
-135 -60 -78 -155 -154 -253 -203 -90 -44 -121 -53 -229 -67 -82 -11 -117 -11
-195 0 -52 7 -111 19 -130 26 -19 6 -39 14 -45 15 -5 2 -19 9 -30 16 -37 21
-50 28 -70 37 -40 18 -141 108 -191 170 -53 66 -114 174 -114 201 0 9 -5 21
-12 28 -6 6 -15 35 -19 64 -4 29 -12 76 -16 103 -5 28 -5 73 -1 100 4 28 10
75 14 105 4 30 13 64 20 75 8 11 14 29 14 41 0 12 7 27 15 34 8 7 15 20 15 30
0 10 7 23 15 30 8 7 15 17 15 22 0 10 44 69 85 116 31 36 165 135 210 155 22
10 53 25 68 33 16 8 39 14 52 14 12 0 38 7 56 15 41 18 258 15 329 -5z"/>
<path d="M969 1586 c-7 -14 -9 -40 -5 -61 6 -32 10 -36 34 -33 24 3 27 8 30
46 5 66 -36 99 -59 48z"/>
<path d="M601 1397 c-17 -22 46 -99 79 -95 37 4 37 35 -1 74 -35 36 -59 43
-78 21z"/>
<path d="M1324 1388 c-46 -51 -48 -88 -5 -88 21 0 82 70 79 90 -5 24 -50 23
-74 -2z"/>
<path d="M779 1194 c-12 -15 -5 -25 61 -87 41 -38 84 -88 96 -111 18 -36 25
-41 58 -44 29 -3 41 2 56 20 11 13 19 33 20 45 0 13 26 44 72 85 51 47 70 69
65 81 -12 32 -43 17 -104 -48 -58 -62 -63 -65 -108 -65 -46 0 -49 2 -113 70
-36 39 -71 70 -77 70 -7 0 -19 -7 -26 -16z"/>
<path d="M407 1043 c-4 -3 -7 -17 -7 -30 0 -31 36 -48 73 -34 31 12 38 55 11
65 -21 8 -69 8 -77 -1z"/>
<path d="M1487 1044 c-12 -13 -7 -53 8 -61 8 -5 33 -7 55 -5 39 4 41 6 38 36
-3 29 -6 31 -48 34 -25 2 -49 0 -53 -4z"/>
<path d="M628 689 c-33 -37 -36 -65 -7 -74 17 -6 29 1 56 31 38 43 39 68 3 72
-18 2 -33 -6 -52 -29z"/>
<path d="M1293 713 c-22 -8 -14 -27 25 -66 28 -27 43 -35 60 -31 32 9 28 38
-10 73 -32 30 -49 35 -75 24z"/>
<path d="M966 495 c-19 -50 3 -100 41 -93 14 3 18 13 18 53 0 47 -2 50 -26 53
-17 2 -29 -3 -33 -13z"/>
</g>
</svg>
